<svg xmlns="http://www.w3.org/2000/svg" viewBox="0 0 64 64">
  <rect width="64" height="64" rx="15" fill="#52745d"/>
  <circle cx="31" cy="31" r="19" fill="none" stroke="#f7f2e8" stroke-width="3"/>
  <path d="M12 31h38M31 12c7 7 10 13 10 19S38 43 31 50M31 12c-7 7-10 13-10 19s3 12 10 19" fill="none" stroke="#f7f2e8" stroke-width="2" stroke-linecap="round"/>
  <path d="M16 22c9 4 21 4 30 0M16 40c9-4 21-4 30 0" fill="none" stroke="#f7f2e8" stroke-width="2" stroke-linecap="round"/>
  <path d="m17 42 10-7 10 6 11-9" fill="none" stroke="#e9b75e" stroke-width="3.5" stroke-linecap="round" stroke-linejoin="round"/>
  <circle cx="17" cy="42" r="4" fill="#e9b75e" stroke="#52745d" stroke-width="2"/>
  <circle cx="27" cy="35" r="4" fill="#e9b75e" stroke="#52745d" stroke-width="2"/>
  <circle cx="37" cy="41" r="4" fill="#e9b75e" stroke="#52745d" stroke-width="2"/>
  <circle cx="48" cy="32" r="4" fill="#e9b75e" stroke="#52745d" stroke-width="2"/>
</svg>
